<svg id="visual" viewBox="0 0 900 600" width="900" height="600" xmlns="http://www.w3.org/2000/svg" xmlns:xlink="http://www.w3.org/1999/xlink" version="1.1"><path d="M0 519L21.5 515.7C43 512.3 86 505.7 128.8 495.7C171.7 485.7 214.3 472.3 257.2 470.3C300 468.3 343 477.7 385.8 484.7C428.7 491.7 471.3 496.3 514.2 492.5C557 488.7 600 476.3 642.8 471C685.7 465.7 728.3 467.3 771.2 469C814 470.7 857 472.3 878.5 473.2L900 474L900 601L878.5 601C857 601 814 601 771.2 601C728.3 601 685.7 601 642.8 601C600 601 557 601 514.2 601C471.3 601 428.7 601 385.8 601C343 601 300 601 257.2 601C214.3 601 171.7 601 128.8 601C86 601 43 601 21.5 601L0 601Z" fill="#0066ff"></path><path d="M0 501L21.5 508.5C43 516 86 531 128.8 531.5C171.7 532 214.3 518 257.2 513.2C300 508.3 343 512.7 385.8 516.5C428.7 520.3 471.3 523.7 514.2 527.2C557 530.7 600 534.3 642.8 535.3C685.7 536.3 728.3 534.7 771.2 529C814 523.3 857 513.7 878.5 508.8L900 504L900 601L878.5 601C857 601 814 601 771.2 601C728.3 601 685.7 601 642.8 601C600 601 557 601 514.2 601C471.3 601 428.7 601 385.8 601C343 601 300 601 257.2 601C214.3 601 171.7 601 128.8 601C86 601 43 601 21.5 601L0 601Z" fill="#3849ff"></path><path d="M0 549L21.5 546.7C43 544.3 86 539.7 128.8 543.5C171.7 547.3 214.3 559.7 257.2 564C300 568.3 343 564.7 385.8 560.7C428.7 556.7 471.3 552.3 514.2 553.5C557 554.7 600 561.3 642.8 560.8C685.7 560.3 728.3 552.7 771.2 547.5C814 542.3 857 539.7 878.5 538.3L900 537L900 601L878.5 601C857 601 814 601 771.2 601C728.3 601 685.7 601 642.8 601C600 601 557 601 514.2 601C471.3 601 428.7 601 385.8 601C343 601 300 601 257.2 601C214.3 601 171.7 601 128.8 601C86 601 43 601 21.5 601L0 601Z" fill="#6600ff"></path></svg>